<svg xmlns="http://www.w3.org/2000/svg" xml:space="preserve" width="1500" height="228" data-id="lg_5QUQPDnklg5BlW6o4a" data-version="1" viewBox="0 0 1500 228"><g data-padding="20"><g transform="translate(461.974 302.226)scale(.9716)"><filter id="a" width="140%" height="140%" x="-20%" y="-20%"><feGaussianBlur in="SourceAlpha"/><feOffset result="oBlur"/><feFlood flood-color="#465454" flood-opacity="1"/><feComposite in2="oBlur" operator="in"/><feMerge><feMergeNode/><feMergeNode in="SourceGraphic"/></feMerge></filter><g filter="url(#a)"><rect width="560" height="65.54" x="88.681" y="-262.217" fill="none" rx="0" ry="0"/><g transform="translate(-258.53 -4.98)"><linearGradient id="b" x1="0" x2="1" y1="0" y2="0" gradientUnits="objectBoundingBox"><stop offset="0%" stop-color="#6ee2f5"/><stop offset="100%" stop-color="#6454f0"/></linearGradient><path fill="url(#b)" d="M594.481 76.233v18.44q-6.03 2.43-13.06 2.43-4.81 0-9.33-1.47t-8.1-4.3-5.69-6.97q-2.11-4.13-2.11-9.46 0-5.63 2-10.29 1.99-4.66 5.67-8.05 3.69-3.38 8.73-5.22t11.16-1.84q1.13 0 2.87.11t3.61.41 3.37.87v14.61q-1.87-.71-3.82-.71-2.92 0-5.38 1.43-2.47 1.43-3.94 3.84t-1.47 5.35q0 2.92 1.13 4.56t3.34 1.64q.88 0 2.1-.28t3.33-1.42q2.11-1.13 5.59-3.68" transform="translate(-206.66 -302.75)"/></g><path fill="url(#b)" d="M624.581 97.103q-4.78 0-9.27-1.68-4.49-1.69-8.07-4.83-3.59-3.14-5.68-7.55-2.1-4.4-2.1-9.84 0-5.32 1.97-9.68t5.45-7.51q3.49-3.14 8.03-4.83 4.55-1.68 9.67-1.68 5.38 0 10.04 1.63t8.16 4.73 5.47 7.53q1.96 4.43 1.96 10.04 0 5.44-2.06 9.81-2.07 4.38-5.67 7.46-3.59 3.09-8.2 4.75-4.6 1.65-9.7 1.65m-1.98-14.72q1.5 0 3.2-1.46t3.2-3.72q1.5-2.27 2.45-4.79t.95-4.65q0-1.98-1.05-3.28t-3.54-1.3q-1.53 0-3.27 1.43t-3.26 3.68q-1.51 2.25-2.47 4.76-.97 2.5-.97 4.63 0 2.04 1.09 3.37t3.67 1.33m33.25 13.62v-45.23h6.48l21.87 20.53 22.46-20.53h6.25v45.23h-18.6v-14.67l-11.56 12.69-11.24-12.35v14.33Z" transform="translate(-465.19 -307.73)"/><path fill="url(#b)" d="M742.401 49.503q7.9 0 12.81 1.87t7.21 5.92q2.29 4.05 2.29 10.64 0 4.42-1.65 8.09-1.66 3.67-4.58 6.33-2.91 2.66-6.78 4.12t-8.28 1.46q-1.14 0-2.34-.06-1.2-.05-2.71-.05v8.18h-18.49v-45.11q6.6-.66 12.18-1.02 5.58-.37 10.34-.37m3 11.75q-.99 0-2.23.51-1.23.51-2.35 1.18-1.11.66-1.84 1.17l-.72.51v10.68l3.31-1.62q2.87-1.41 4.95-3.49 2.08-2.09 2.08-5.4 0-1.41-.84-2.48-.83-1.06-2.36-1.06" transform="translate(-465.2 -307.73)"/><path fill="url(#b)" d="M769.471 96.003v-45.23h32.6v13.03h-14.98v3.71h14.92v11.1h-14.92v4.28h15.97v13.11Zm38.43-30.56v-14.67h42.82v14.67h-12.6v30.56h-17.62v-30.56Zm47.86 30.56v-45.23h32.54v12.8h-14.92v4.19h14.92v12.35h-14.92v15.89Zm55.09-45.23v45.23h-17.62v-45.23Zm6.91 45.23v-45.23h4.58l24.7 17.62v-17.62h15.94v45.23h-6.09l-23.25-15.55v15.55Z" transform="translate(-465.19 -307.73)"/><path fill="url(#b)" d="M969.951 96.003v-45.23l1.7-.12q1.7-.13 4.45-.33 2.74-.2 5.97-.38 3.23-.19 6.36-.31 3.13-.13 5.54-.13 5.55 0 9.62 2.09 4.08 2.1 6.74 5.6 2.67 3.49 3.97 7.73 1.3 4.23 1.3 8.51 0 5.32-1.81 9.51-1.81 4.2-5.06 7.11-3.24 2.92-7.61 4.43-4.38 1.52-9.48 1.52Zm17.62-30.87v17.25q1.5-1.28 3.22-2.55 1.73-1.28 3.27-2.72 1.55-1.44 2.53-3.24.97-1.8.97-4.15 0-1.56-.65-3.17-.65-1.62-1.88-2.71t-3.05-1.09q-1.3 0-2.45.71-1.14.71-1.96 1.67m33.64 30.87v-45.23h32.6v13.03h-14.99v3.71h14.93v11.1h-14.93v4.28h15.98v13.11Z" transform="translate(-465.2 -307.73)"/><path fill="url(#b)" d="M1080.001 96.003h-18.49v-45.23l1.77-.12q1.77-.13 4.64-.33 2.88-.2 6.29-.38 3.41-.19 6.77-.31 3.36-.13 5.99-.13 5.49 0 9.32 1.43 3.82 1.43 6.17 3.78t3.44 5.18 1.09 5.67q0 4.95-2.52 8.51-2.52 3.55-6.43 5.87l12.29 16.06h-22.37l-7.96-13.11Zm-.11-32.43v11.08q5.49-2.04 7.89-4.44 2.39-2.39 2.39-5.14 0-2.29-.85-3.14t-2.12-.85q-.83 0-1.7.27-.88.27-1.84.67Z" transform="translate(-465.19 -307.73)"/></g></g><path fill="#9fa6b2" d="M496.936 58.073v48.097h-4.003l.105-63.06h-24.045l-.112 63.06h-4.003V64.754h-22.713v49.429h74.813v-56.11Zm4.01 5.342h12.022v14.708h-12.023Zm0 20.042h12.022V98.15h-12.023ZM472.89 47.39h16.032v6.68H472.89Zm0 13.354h16.032v6.68H472.89Zm0 13.362h16.032v6.68H472.89Zm0 13.36h16.032v6.681H472.89Zm-26.716-17.371h5.342v9.352h-5.342Zm9.351 0h5.342v9.352h-5.342Zm-9.351 16.033h5.342v9.352h-5.342Zm9.351 0h5.342v9.352h-5.342Z"/><path fill="#9fa6b2" d="M614.09 222.123q2.572 2.596 6.238 2.545 3.665.05 6.236-2.545 2.596-2.571 2.546-6.237.05-3.666-2.546-6.237l-76.367-76.367q-2.57-2.596-6.236-2.673-3.666.077-6.237 2.673-2.596 2.571-2.673 6.237.077 3.666 2.673 6.236ZM552.744 75.88q.05-29.988-21.256-51.294-21.153-21.178-51.166-21.255-29.987.05-51.293 21.128l-.127.127q-21.078 21.307-21.128 51.294.076 30.012 21.255 51.166 21.307 21.307 51.293 21.255 29.988.077 51.166-21.255 21.333-21.18 21.256-51.166m-33.729-38.82q16.114 16.114 16.037 38.82.05 22.655-16.037 38.565l-.127.127q-15.91 16.088-38.566 16.037-22.706.077-38.82-16.037-15.986-16.012-16.037-38.692.077-22.656 16.037-38.82 16.165-15.96 38.82-16.037 22.681.05 38.693 16.037"/><path fill="transparent" stroke="transparent" d="M398 0h704v228H398z"/></g></svg>